<svg xmlns="http://www.w3.org/2000/svg" width="24" height="24" fill="none" viewBox="0 0 24 24"><g id="Frame" clip-path="url(#clip0_2252_3002)"><path id="Vector" fill="#000" d="M21.1875 1.875H20.0625V0H18.1875V1.875H15.2812V0H13.4062V1.875H10.5938V0H8.71875V1.875H5.8125V0H3.9375V1.875H2.8125C1.2616 1.875 0 3.1366 0 4.6875V21.1875C0 22.7384 1.2616 24 2.8125 24H21.1875C22.7384 24 24 22.7384 24 21.1875V4.6875C24 3.1366 22.7384 1.875 21.1875 1.875ZM22.125 21.1875C22.125 21.7044 21.7044 22.125 21.1875 22.125H2.8125C2.29559 22.125 1.875 21.7044 1.875 21.1875V19.1719H20.25V17.2969H1.875V14.4375H20.25V12.5625H1.875V9.84375H20.25V7.96875H1.875V4.6875C1.875 4.17059 2.29559 3.75 2.8125 3.75H3.9375V5.625H5.8125V3.75H8.71875V5.625H10.5938V3.75H13.4062V5.625H15.2812V3.75H18.1875V5.625H20.0625V3.75H21.1875C21.7044 3.75 22.125 4.17059 22.125 4.6875V21.1875Z"/></g><defs><clipPath id="clip0_2252_3002"><rect width="24" height="24" fill="#fff"/></clipPath></defs></svg>