<svg xmlns="http://www.w3.org/2000/svg" width="172" height="51"><g fill="none" fill-rule="evenodd"><path fill="#374750" d="M48.162 14.398c0-.52-.26-.754-.78-.754h-2.938c-.52 0-.754.234-.754.754v16.848c0 .52.234.754.754.754h10.192c.52 0 .754-.234.754-.754v-2.47c0-.52-.234-.754-.754-.754h-6.474V14.398zm23.59 12.454c0-3.744-2.705-4.706-5.669-5.85-1.846-.728-3.094-1.196-3.094-2.366 0-1.144 1.014-1.534 2.782-1.534 1.3 0 2.548.208 3.536.546.52.182.78.052.962-.442l.728-1.872c.182-.494-.026-.702-.442-.936-1.014-.52-2.86-1.04-5.226-1.04-4.342 0-6.812 1.664-6.812 5.148 0 3.822 2.73 4.94 5.512 5.928 1.872.676 3.25 1.196 3.25 2.366 0 1.248-1.404 1.742-3.328 1.742-1.664 0-3.042-.39-3.952-.78-.52-.208-.806-.026-.962.442l-.728 1.976c-.182.52 0 .728.416.936 1.222.624 3.38 1.144 5.954 1.144 3.9 0 7.072-1.56 7.072-5.408zm10.588-.754l3.432 5.2c.286.468.546.702 1.092.702h3.146c.52 0 .728-.468.416-.936l-5.668-8.372 5.512-8.112c.312-.442.078-.936-.416-.936h-3.146c-.546 0-.78.234-1.066.676l-3.276 5.018-3.25-5.018c-.26-.416-.52-.676-1.066-.676h-3.198c-.494 0-.728.494-.416.936l5.486 8.138-5.642 8.346c-.312.468-.104.936.416.936h3.12c.546 0 .806-.26 1.092-.702l3.432-5.2zm17.636-6.058c.208 0 .312-.078.312-.312V19c0-.234-.104-.338-.312-.338H96.31v-3.458c0-.234-.104-.312-.312-.312h-.832c-.234 0-.312.078-.312.312v3.458H92.8c-.208 0-.312.104-.312.338v.728c0 .234.104.312.312.312h2.028v8.112c0 2.912.962 4.004 3.588 4.004.676 0 1.456-.13 1.846-.286.156-.052.26-.13.208-.312l-.208-.702c-.052-.182-.104-.286-.312-.26-.39.078-.702.182-1.3.182-1.82 0-2.34-.65-2.34-2.782V20.04h3.666zm15.399 3.068c0-2.886-1.56-4.758-4.758-4.758-2.886 0-4.316 1.508-4.81 2.678V14.06c0-.208-.104-.286-.312-.286h-.884c-.234 0-.338.078-.338.286v17.628c0 .208.104.312.338.312h.884c.208 0 .312-.104.312-.312v-7.774c0-2.34 1.742-4.134 4.446-4.134 2.574 0 3.614 1.326 3.614 3.536v8.372c0 .208.104.312.312.312h.91c.208 0 .286-.104.286-.312v-8.58zm10.98 7.878c1.533 0 2.573-.312 3.561-.858.234-.13.364 0 .442.182l.26.676c.052.182-.026.286-.208.364-1.04.546-2.496.962-4.134.962-4.16 0-6.552-2.652-6.552-6.968 0-4.446 2.236-6.994 5.98-6.994s5.694 2.652 5.694 6.292v1.066c0 .234-.104.312-.338.312h-9.828c.13 3.016 1.976 4.966 5.122 4.966zm-.65-11.31c-2.809 0-4.343 1.742-4.473 5.07h8.684v-.208c0-2.834-1.326-4.862-4.212-4.862zm20.468 3.874c0-2.184 1.69-3.77 4.108-3.77 2.314 0 3.198 1.274 3.198 3.406v8.502c0 .208.104.312.312.312h.884c.234 0 .312-.104.312-.312v-8.684c0-2.782-1.43-4.654-4.368-4.654-2.73 0-4.134 1.3-4.758 2.73-.468-1.742-1.794-2.73-4.056-2.73-2.678 0-4.03 1.482-4.446 2.626v-2.002c0-.208-.104-.312-.312-.312h-.884c-.234 0-.338.104-.338.338v12.688c0 .208.104.312.338.312h.884c.208 0 .312-.104.312-.312v-7.93c0-2.34 1.664-3.978 4.134-3.978 2.288 0 3.172 1.274 3.172 3.38v8.528c0 .208.104.312.312.312h.884c.208 0 .312-.104.312-.312V23.55zm19.794 7.436c1.534 0 2.574-.312 3.562-.858.234-.13.364 0 .442.182l.26.676c.052.182-.026.286-.208.364-1.04.546-2.496.962-4.134.962-4.16 0-6.552-2.652-6.552-6.968 0-4.446 2.236-6.994 5.98-6.994s5.694 2.652 5.694 6.292v1.066c0 .234-.104.312-.338.312h-9.828c.13 3.016 1.976 4.966 5.122 4.966zm-.65-11.31c-2.808 0-4.342 1.742-4.472 5.07h8.684v-.208c0-2.834-1.326-4.862-4.212-4.862z"/><path fill="#D84E2E" d="M33.403 21.657a1.085 1.085 0 0 0-.948-.675l-11.778-.618 6.594-18.661a1.085 1.085 0 1 0-1.84-1.08L1.063 28.46a1.09 1.09 0 0 0 .76 1.802l11.694.613-7.694 18.564a1.089 1.089 0 0 0 .945 1.503c.314.016.63-.104.856-.349l25.573-27.789c.285-.31.366-.757.207-1.147z"/></g></svg>